<svg xmlns="http://www.w3.org/2000/svg" xmlns:xlink="http://www.w3.org/1999/xlink" viewBox="0 0 500 500"><defs><clipPath id="freepik--clip-path--inject-70"><path d="M264.76,233.77c-8.44,2.38-32.11,26.93-32.11,26.93s-2.78-3-3.76-2.44-3.89,6.11-3.89,6.11-5.48-3-9.47-2.13-14,19.05-14,19.05-2.93,7,0,9.19a9.9,9.9,0,0,0,5.31,2.14,53.57,53.57,0,0,0,4.73,7.38c2.37,2.9,13.71,0,13.71,0l37.62-20.63s10.67-27.23,11.5-30.22S264.76,233.77,264.76,233.77Z" style="fill:#999;stroke:#263238;stroke-linecap:round;stroke-linejoin:round"></path></clipPath><clipPath id="freepik--clip-path-2--inject-70"><path d="M171.15,211.65s2,7,3.73,8.28,16.89,7.7,16.89,7.7l-1.68,20c10.71,4,23.48-2.63,23.48-2.63a121.26,121.26,0,0,1-4.8-19.91s6.86-10,6.33-13.45S171.15,211.65,171.15,211.65Z" style="fill:#6D97BF;stroke:#263238;stroke-linecap:round;stroke-linejoin:round"></path></clipPath><clipPath id="freepik--clip-path-3--inject-70"><path d="M261.31,235s8.31-3.17,11.67-3.17,10.65,1.59,10.65,1.59,3.52-1.54,13.55-3.28,14,3.54,14,3.54,24.87,3.08,28.92,9.45-13.62,45.93-31,63.34l11.65,41.74s-38.55,18-76.82,6.26l11.9-45.3s-7.81-28.6-9.18-41.36,16.88-26.22,16.88-26.22" style="fill:#999;stroke:#263238;stroke-linecap:round;stroke-linejoin:round"></path></clipPath><clipPath id="freepik--clip-path-4--inject-70"><path d="M311.15,233.67c.8,11.08-12.57,32.44-12.57,32.44s-30.28-1.1-41.69-5c0,0,9.5-17.92,26.74-27.67l-3.25-.65s-30,20.12-33.79,28.32,6.81,48.58,6.81,48.58S231,376.88,231.24,414.07c0,0,0,30.18,34.28,30.18,43.68,0,50.15-27.34,50.15-27.34s-5.31-73.79-10.05-95.15c0,0-4.11-35.87,2.3-47.47s8-31,6.45-40.16Z" style="fill:#fff;stroke:#263238;stroke-linecap:round;stroke-linejoin:round"></path></clipPath><clipPath id="freepik--clip-path-5--inject-70"><path d="M254,202v2.78l-22.89,2.93L225.88,213s-36.37,3.56-69.76,2.12l-6.48-4.54-20.77-2.92v-3.07s41.51-5.37,76.77-5.27S254,202,254,202Z" style="fill:#bfbfbf;stroke:#263238;stroke-linecap:round;stroke-linejoin:round"></path></clipPath><clipPath id="freepik--clip-path-6--inject-70"><path d="M340.07,243.12c8.4,4.92,36,45.92,37.62,51.76s-6.83,18.26-6.83,18.26l-7.49,7.3s-18.23-12.39-19-13.45,2.46-6.33,2.46-6.33l-2.43-3.14.91-3.41-17.72-15.37s-3.27-22.41,3.64-30" style="fill:#999;stroke:#263238;stroke-linecap:round;stroke-linejoin:round"></path></clipPath><clipPath id="freepik--clip-path-7--inject-70"><polygon points="59.94 449.46 52.02 449.46 48.16 427.56 41.22 388.16 49.14 388.16 55.39 423.63 59.94 449.46" style="fill:#bfbfbf;stroke:#263238;stroke-linecap:round;stroke-linejoin:round"></polygon></clipPath><clipPath id="freepik--clip-path-8--inject-70"><polygon points="131.98 393.54 37.71 393.54 28.47 341.08 122.74 341.08 131.98 393.54" style="fill:#bfbfbf;stroke:#263238;stroke-linecap:round;stroke-linejoin:round"></polygon></clipPath><clipPath id="freepik--clip-path-9--inject-70"><path d="M153.09,399.85c-3.11,2.78-6.59,5.13-8.55,4.33-2.84-1.17-4.24-10.93-4.84-17.06-.28-2.9-.39-5-.39-5l5.23-28.31c10.46,7.75,12.31,12.1,12.83,17.25s1.72,20.8,2.11,21.48C159.69,392.92,156.64,396.67,153.09,399.85Z" style="fill:#6D97BF;stroke:#263238;stroke-linecap:round;stroke-linejoin:round"></path></clipPath><clipPath id="freepik--clip-path-10--inject-70"><path d="M148.57,385.07c-.63,2.76-1.29,5.95-1.95,9.42-3.57,18.66-7.31,45.28-7.31,55H69.91s-.5-23.77,0-47.85c.37-17.14,1.25-34.43,3.2-43.41,0,0,15.36-18.82,44.93-15.31,14.78,1.76,23.52,7.6,28.57,13" style="fill:#6D97BF;stroke:#263238;stroke-linecap:round;stroke-linejoin:round"></path></clipPath><clipPath id="freepik--clip-path-11--inject-70"><path d="M86.56,361.45a33.62,33.62,0,0,1,.45,5.86A32.22,32.22,0,0,1,82,384.4c-1.47,4.36-4.09,12-9.51,18.76-.12.17-.26.33-.39.49-5.67,6.86-5.81-5.73-12.27-9.26s-6.05-6.17-6.05-6.17c5.4-7.9,5.22-11.72,8.3-16.62,7.53-11.94,6.33-15.42,25.48-23.94" style="fill:#6D97BF;stroke:#263238;stroke-linecap:round;stroke-linejoin:round"></path></clipPath><clipPath id="freepik--clip-path-12--inject-70"><path d="M418.1,450.46s-2.41-68.61,1.51-92.75a64.83,64.83,0,0,0-10.46-47.15c-3.92-5.62-25.71-11.15-25.71-11.15s-3.49-4.6-17-4.2-31.84,8.41-31.84,8.41c-7.4,1.81-12.9,4.52-17,7.77-5.27,1.07-11.56,6.38-18,13.55-2.94-3-8.76-6.1-10.81-6-1.52.1-3.09,2.55-4.09,4.45-7.52-2-7.06,6-7.06,6S240.64,385,265.77,400.31l0,.25,1,.36c4.32,2.29,8.06,2.31,11.31.74,10.23-2.45,19.1-13.72,34.1-29.79,1.33,17.05,2.5,78.59,2.5,78.59" style="fill:#6D97BF;stroke:#263238;stroke-linecap:round;stroke-linejoin:round"></path></clipPath><clipPath id="freepik--clip-path-13--inject-70"><polyline points="336.56 450.46 350.1 373.56 360.03 373.56 346.49 450.46" style="fill:#bfbfbf;stroke:#263238;stroke-linecap:round;stroke-linejoin:round"></polyline></clipPath><clipPath id="freepik--clip-path-14--inject-70"><polyline points="434.78 450.46 447.85 376.22 448.32 373.56 458.26 373.56 457.64 377.11 444.72 450.46" style="fill:#bfbfbf;stroke:#263238;stroke-linecap:round;stroke-linejoin:round"></polyline></clipPath><clipPath id="freepik--clip-path-15--inject-70"><polygon points="474.26 314.5 473.17 320.69 462.67 380.31 344.4 380.31 355.99 314.5 474.26 314.5" style="fill:#bfbfbf;stroke:#263238;stroke-linecap:round;stroke-linejoin:round"></polygon></clipPath></defs><g id="freepik--background-simple--inject-70"><path d="M426.65,201.38C408.46,181.27,378,179,354.28,165.83c-40.79-22.7-56.6-74.39-93.71-102.71-23.43-17.88-55.09-24.82-83.4-20.9-40.19,5.57-78,32.5-89.36,72a99.79,99.79,0,0,0-3.44,35.41c1.82,23.55,6.88,47.4,2.1,70.53-5.26,25.49-21.85,47-31.76,71.09-12.34,30-14,63.6-8.76,95.58,3.6,21.82,10.77,43.84,25.76,60.11,1.13,1.23,2.31,2.4,3.51,3.55H238.83c10.26-13.09,18-28.58,27.07-42.33,22.72-34.58,59.1-59.24,98.83-70.81,17.8-5.18,37.08-8.26,51.38-20.06,14.72-12.13,21.48-31.49,24.41-50.34C444.06,244.1,442.14,218.52,426.65,201.38Z" style="fill:#6D97BF"></path><path d="M426.65,201.38C408.46,181.27,378,179,354.28,165.83c-40.79-22.7-56.6-74.39-93.71-102.71-23.43-17.88-55.09-24.82-83.4-20.9-40.19,5.57-78,32.5-89.36,72a99.79,99.79,0,0,0-3.44,35.41c1.82,23.55,6.88,47.4,2.1,70.53-5.26,25.49-21.85,47-31.76,71.09-12.34,30-14,63.6-8.76,95.58,3.6,21.82,10.77,43.84,25.76,60.11,1.13,1.23,2.31,2.4,3.51,3.55H238.83c10.26-13.09,18-28.58,27.07-42.33,22.72-34.58,59.1-59.24,98.83-70.81,17.8-5.18,37.08-8.26,51.38-20.06,14.72-12.13,21.48-31.49,24.41-50.34C444.06,244.1,442.14,218.52,426.65,201.38Z" style="fill:#fff;opacity:0.7000000000000001"></path></g><g id="freepik--Window--inject-70"><polyline points="235.91 281.17 235.91 123.42 222.5 123.42" style="fill:none;stroke:#263238;stroke-linecap:round;stroke-linejoin:round"></polyline><line x1="235.91" y1="306.96" x2="235.91" y2="301.21" style="fill:none;stroke:#263238;stroke-linecap:round;stroke-linejoin:round"></line><polyline points="187.99 123.42 49.57 123.42 49.57 327.16 235.91 327.16" style="fill:none;stroke:#263238;stroke-linecap:round;stroke-linejoin:round"></polyline><line x1="204.97" y1="123.42" x2="192.8" y2="123.42" style="fill:none;stroke:#263238;stroke-linecap:round;stroke-linejoin:round"></line><rect x="56.58" y="130.41" width="172.32" height="189.76" transform="translate(285.48 450.57) rotate(180)" style="fill:none;stroke:#263238;stroke-linecap:round;stroke-linejoin:round"></rect><polyline points="64.59 143.73 64.59 217.53 220.89 217.53 220.89 210.8" style="fill:none;stroke:#263238;stroke-linecap:round;stroke-linejoin:round"></polyline><polyline points="220.89 195.01 220.89 137.74 64.59 137.74" style="fill:none;stroke:#263238;stroke-linecap:round;stroke-linejoin:round"></polyline><line x1="220.89" y1="205.62" x2="220.89" y2="199.07" style="fill:none;stroke:#263238;stroke-linecap:round;stroke-linejoin:round"></line><line x1="90.99" y1="225.29" x2="56.58" y2="225.29" style="fill:none;stroke:#263238;stroke-linecap:round;stroke-linejoin:round"></line><line x1="103.22" y1="225.29" x2="98.35" y2="225.29" style="fill:none;stroke:#263238;stroke-linecap:round;stroke-linejoin:round"></line><line x1="228.9" y1="225.29" x2="109.04" y2="225.29" style="fill:none;stroke:#263238;stroke-linecap:round;stroke-linejoin:round"></line><polyline points="151.4 217.53 151.4 213.98 136.99 213.98 136.99 216 142.74 216 142.74 217.53" style="fill:none;stroke:#263238;stroke-linecap:round;stroke-linejoin:round"></polyline><path d="M228.6,288.88s-2.38,1.81-4.07,12.76c0,0-2.89-17.48-6.4-17.76s-2.79,11.38-2.79,11.38-.58-5.74-3.33-5.48,0,11.86,0,11.86-3.3-9-6.42-8.88,2.07,16.37,2.07,16.37-8-5.8-11.25-3,1.8,10,1.8,10-11.49-2.49-13.28,4.25" style="fill:none;stroke:#263238;stroke-linecap:round;stroke-linejoin:round"></path><path d="M184.93,313.88s-5-3.28-8.94-1.75c0,0,2.5-3.82,0-6.15s-5.73,6.15-5.73,6.15-.35-14.21-5.36-13.49,0,13.49,0,13.49-9-7.93-11.09-5.17,1.43,6.92,1.43,6.92-5.37-1.71-9.3,2.29c0,0-6-6.12-12.66-7,0,0,4.43-12.86,2.28-15.45s-6.05,11.22-6.05,11.22-1.7-9-7.3-9.68c0,0,4.66-2.53,3.28-6.38s-7.82.9-7.82.9,2.65-6.75-1.54-8.61-5.93,5.66-5.93,5.66-1.16-7.87-6.09-7.44-3.32,9.49-3.32,9.49-4.64-7.2-7.13-6.46c-5,1.46-3.46,12.84-3.46,12.84s-6.93-4.82-8.71-2.6c-1.93,2.39,7.2,8.55,7.2,8.55S81.82,302,77.54,306" style="fill:none;stroke:#263238;stroke-linecap:round;stroke-linejoin:round"></path><path d="M56.58,291.48s.79-7.22,8-7.6-2,15.83-2,15.83,6-4.92,8.09-3.41-6.1,9.87-6.1,9.87,4-3.66,8.13-2.53-2.39,12.76-2.39,12.76a29.78,29.78,0,0,1,18.35,2.14" style="fill:none;stroke:#263238;stroke-linecap:round;stroke-linejoin:round"></path></g><g id="freepik--Pennants--inject-70"><path d="M237.48,65C270,85,303,104,339,117c30,10,62,20,93.93,11.84" style="fill:none;stroke:#263238;stroke-linecap:round;stroke-linejoin:round"></path><path d="M222.34,55.37q5.58,3.6,11.2,7.14" style="fill:none;stroke:#263238;stroke-linecap:round;stroke-linejoin:round"></path><path d="M213.88,49.88,218.63,53" style="fill:none;stroke:#263238;stroke-linecap:round;stroke-linejoin:round"></path><path d="M207.77,45.75l2.92,2" style="fill:none;stroke:#263238;stroke-linecap:round;stroke-linejoin:round"></path><path d="M426.59,130.51l-9.83,27.16-9.61-24.48A16.53,16.53,0,0,0,426.59,130.51Z" style="fill:#6D97BF;stroke:#263238;stroke-linecap:round;stroke-linejoin:round"></path><path d="M407.15,133.19,396,155.34l-7.47-23.46S399.35,138.91,407.15,133.19Z" style="fill:#fff;stroke:#263238;stroke-linecap:round;stroke-linejoin:round"></path><path d="M388.52,131.88l-15.69,20.59-7.33-26.88S377.09,135.07,388.52,131.88Z" style="fill:#6D97BF;stroke:#263238;stroke-linecap:round;stroke-linejoin:round"></path><path d="M365.5,125.59,351.89,142.8,347.83,120S359.38,128,365.5,125.59Z" style="fill:#fff;stroke:#263238;stroke-linecap:round;stroke-linejoin:round"></path><path d="M347.83,120,334,136.07l-5.24-23.42S338.22,121,347.83,120Z" style="fill:#6D97BF;stroke:#263238;stroke-linecap:round;stroke-linejoin:round"></path><path d="M328.76,112.65s-12.49,17.48-12.69,16.57l-5-24.37S319,114.33,328.76,112.65Z" style="fill:#fff;stroke:#263238;stroke-linecap:round;stroke-linejoin:round"></path><path d="M311,104.85c2.17-1-13.06,17.32-13.06,17.32l-8.43-27.83S302.62,108.59,311,104.85Z" style="fill:#6D97BF;stroke:#263238;stroke-linecap:round;stroke-linejoin:round"></path><path d="M289.54,94.34s-15.33,18.22-15.33,16.51-6.85-28.4-6.85-28.4S279.36,95.57,289.54,94.34Z" style="fill:#fff;stroke:#263238;stroke-linecap:round;stroke-linejoin:round"></path><path d="M267.36,82.45,253,100.8l-7.32-30.88S256.65,86.25,267.36,82.45Z" style="fill:#6D97BF;stroke:#263238;stroke-linecap:round;stroke-linejoin:round"></path><path d="M242.58,65.22C195.46,83.31,99.67,113.76,47.9,85.9" style="fill:none;stroke:#263238;stroke-linecap:round;stroke-linejoin:round"></path><path d="M257.86,59.13c-1.85.76-3.88,1.6-6.08,2.48" style="fill:none;stroke:#263238;stroke-linecap:round;stroke-linejoin:round"></path><path d="M270.22,53.79s-1.46.68-4.17,1.86" style="fill:none;stroke:#263238;stroke-linecap:round;stroke-linejoin:round"></path><path d="M54,88.86,63.48,117l9.29-21.38S63,99.2,54,88.86Z" style="fill:#6D97BF;stroke:#263238;stroke-linecap:round;stroke-linejoin:round"></path><path d="M72.77,95.61l10.81,23.68,7.26-20.91S80.32,102.78,72.77,95.61Z" style="fill:#fff;stroke:#263238;stroke-linecap:round;stroke-linejoin:round"></path><path d="M90.84,98.38l15.27,23.23,7.16-24.29S102,103.93,90.84,98.38Z" style="fill:#6D97BF;stroke:#263238;stroke-linecap:round;stroke-linejoin:round"></path><path d="M113.27,97.32l13.32,19.56,4-21.14S119.25,101,113.27,97.32Z" style="fill:#fff;stroke:#263238;stroke-linecap:round;stroke-linejoin:round"></path><path d="M130.56,95.74l13.59,18.56,5.16-21.51S140,98.82,130.56,95.74Z" style="fill:#6D97BF;stroke:#263238;stroke-linecap:round;stroke-linejoin:round"></path><path d="M149.31,92.79s12.32,19.66,12.52,18.82,5-22.52,5-22.52S159,96.55,149.31,92.79Z" style="fill:#fff;stroke:#263238;stroke-linecap:round;stroke-linejoin:round"></path><path d="M166.82,89.09c-2.15-1.41,12.93,19.66,12.93,19.66l8.38-25.19S175.14,94.55,166.82,89.09Z" style="fill:#6D97BF;stroke:#263238;stroke-linecap:round;stroke-linejoin:round"></path><path d="M188.13,83.56S203.4,104.63,203.4,103s6.84-26.18,6.84-26.18S198.26,87,188.13,83.56Z" style="fill:#fff;stroke:#263238;stroke-linecap:round;stroke-linejoin:round"></path><path d="M210.24,76.79l14.34,21,7.34-28.57S221,82.83,210.24,76.79Z" style="fill:#6D97BF;stroke:#263238;stroke-linecap:round;stroke-linejoin:round"></path></g><g id="freepik--Plant--inject-70"><path d="M426.47,407.37c1.08-5.26-8.86-169.08,14.31-239.12" style="fill:none;stroke:#263238;stroke-linecap:round;stroke-linejoin:round"></path><path d="M402.94,191.61s19.66,18,26.09,41.68" style="fill:none;stroke:#263238;stroke-linecap:round;stroke-linejoin:round"></path><path d="M426.47,272s14.27-17.93,29.56-24.12" style="fill:none;stroke:#263238;stroke-linecap:round;stroke-linejoin:round"></path><path d="M405.92,287.81s12.93,1.33,19.66,9.8" style="fill:none;stroke:#263238;stroke-linecap:round;stroke-linejoin:round"></path><path d="M416,193a40.59,40.59,0,0,1-.2,13.59s-7.73-1.07-10.81-.67" style="fill:none;stroke:#263238;stroke-linecap:round;stroke-linejoin:round"></path><path d="M431.18,175.68s2.35,8.49,4.34,12.52a101.91,101.91,0,0,1,10.89-6.77" style="fill:none;stroke:#263238;stroke-linecap:round;stroke-linejoin:round"></path><path d="M426.47,198.36s3.38,6.39,5.5,10c0,0,8.7-5.35,12.85-6.7" style="fill:none;stroke:#263238;stroke-linecap:round;stroke-linejoin:round"></path><path d="M449.57,240.1s-5.16,8.39-5.84,15.07c0,0,8.41,3.72,10,5.9" style="fill:none;stroke:#263238;stroke-linecap:round;stroke-linejoin:round"></path><path d="M414.16,282.62s4.32,5,5.52,9.89c0,0-5.52,3.08-6.9,5.1" style="fill:none;stroke:#263238;stroke-linecap:round;stroke-linejoin:round"></path><path d="M412.78,248.27s11.33,3.27,14.26,11.48" style="fill:none;stroke:#263238;stroke-linecap:round;stroke-linejoin:round"></path><path d="M425.37,309.64a111.75,111.75,0,0,1,12.73-7.54" style="fill:none;stroke:#263238;stroke-linecap:round;stroke-linejoin:round"></path><path d="M443.29,166.9a2,2,0,1,1-2-2.05A2,2,0,0,1,443.29,166.9Z" style="fill:#fff;stroke:#263238;stroke-linecap:round;stroke-linejoin:round"></path><circle cx="446.86" cy="181.43" r="2.04" style="fill:#fff;stroke:#263238;stroke-linecap:round;stroke-linejoin:round"></circle><path d="M446.86,201.69a2,2,0,1,1-2-2A2,2,0,0,1,446.86,201.69Z" style="fill:#fff;stroke:#263238;stroke-linecap:round;stroke-linejoin:round"></path><path d="M433.22,174.33a2,2,0,1,1-2-2A2,2,0,0,1,433.22,174.33Z" style="fill:#fff;stroke:#263238;stroke-linecap:round;stroke-linejoin:round"></path><path d="M418,193a2,2,0,1,1-2-2A2,2,0,0,1,418,193Z" style="fill:#fff;stroke:#263238;stroke-linecap:round;stroke-linejoin:round"></path><path d="M451,240.1a2,2,0,1,1-2-2A2,2,0,0,1,451,240.1Z" style="fill:#fff;stroke:#263238;stroke-linecap:round;stroke-linejoin:round"></path><circle cx="411.9" cy="248.27" r="2.04" style="fill:#fff;stroke:#263238;stroke-linecap:round;stroke-linejoin:round"></circle><path d="M455.77,262.08a2,2,0,1,1-2-2A2,2,0,0,1,455.77,262.08Z" style="fill:#fff;stroke:#263238;stroke-linecap:round;stroke-linejoin:round"></path><path d="M440.83,302.1a2,2,0,1,1-2-2A2,2,0,0,1,440.83,302.1Z" style="fill:#fff;stroke:#263238;stroke-linecap:round;stroke-linejoin:round"></path><path d="M416,281.21a2,2,0,1,1-2-2A2,2,0,0,1,416,281.21Z" style="fill:#fff;stroke:#263238;stroke-linecap:round;stroke-linejoin:round"></path><path d="M414,298.31a2,2,0,1,1-2.05-2A2.05,2.05,0,0,1,414,298.31Z" style="fill:#fff;stroke:#263238;stroke-linecap:round;stroke-linejoin:round"></path><path d="M427.62,198.36a2,2,0,1,1-2-2A2,2,0,0,1,427.62,198.36Z" style="fill:#fff;stroke:#263238;stroke-linecap:round;stroke-linejoin:round"></path><path d="M407,205.41a2,2,0,1,1-2-2A2,2,0,0,1,407,205.41Z" style="fill:#fff;stroke:#263238;stroke-linecap:round;stroke-linejoin:round"></path><path d="M459.22,247.87a2,2,0,1,1-2-2A2,2,0,0,1,459.22,247.87Z" style="fill:#fff;stroke:#263238;stroke-linecap:round;stroke-linejoin:round"></path><path d="M405.4,287.81a2,2,0,1,1-2-2A2,2,0,0,1,405.4,287.81Z" style="fill:#fff;stroke:#263238;stroke-linecap:round;stroke-linejoin:round"></path><path d="M405,190.92a2,2,0,1,1-2-2A2,2,0,0,1,405,190.92Z" style="fill:#fff;stroke:#263238;stroke-linecap:round;stroke-linejoin:round"></path></g><g id="freepik--character-2--inject-70"><path d="M315.67,338.5s6.74,12.76,11.89,36.43c2.13,9.8,7.42,74.53,7.42,74.53H285.63L277.88,429v20.5H236.16S230.21,396.21,248,338.74,315.67,338.5,315.67,338.5Z" style="fill:#263238"></path><path d="M264.76,233.77c-8.44,2.38-32.11,26.93-32.11,26.93s-2.78-3-3.76-2.44-3.89,6.11-3.89,6.11-5.48-3-9.47-2.13-14,19.05-14,19.05-2.93,7,0,9.19a9.9,9.9,0,0,0,5.31,2.14,53.57,53.57,0,0,0,4.73,7.38c2.37,2.9,13.71,0,13.71,0l37.62-20.63s10.67-27.23,11.5-30.22S264.76,233.77,264.76,233.77Z" style="fill:#999"></path><g style="clip-path:url(#freepik--clip-path--inject-70)"><path d="M258.46,281.8,225.26,300s-11.34,2.9-13.71,0a53.57,53.57,0,0,1-4.73-7.38,9.9,9.9,0,0,1-5.31-2.14,3.69,3.69,0,0,1-1.29-3c11.62,7.33,20.9-7.16,21.09-4.22.2,3.17-2.46,14.44-2.46,14.44s9.47.6,14.72-11.08,22.11-35.41,22.11-35.41Z" style="fill-opacity:0.7000000000000001;opacity:0.30000000000000004"></path></g><path d="M264.76,233.77c-8.44,2.38-32.11,26.93-32.11,26.93s-2.78-3-3.76-2.44-3.89,6.11-3.89,6.11-5.48-3-9.47-2.13-14,19.05-14,19.05-2.93,7,0,9.19a9.9,9.9,0,0,0,5.31,2.14,53.57,53.57,0,0,0,4.73,7.38c2.37,2.9,13.71,0,13.71,0l37.62-20.63s10.67-27.23,11.5-30.22S264.76,233.77,264.76,233.77Z" style="fill:none;stroke:#263238;stroke-linecap:round;stroke-linejoin:round"></path><path d="M207.26,224.74c.06,13.87,5,25.9,6.55,29.66,3.68,8.83,5.94,14.91,4.69,17.81s-9.49,19.51-17.24,7.25-5-51.34-5-51.34Z" style="fill:#fff;stroke:#263238;stroke-linecap:round;stroke-linejoin:round"></path><path d="M171.15,211.65s2,7,3.73,8.28,16.89,7.7,16.89,7.7l-1.68,20c10.71,4,23.48-2.63,23.48-2.63a121.26,121.26,0,0,1-4.8-19.91s6.86-10,6.33-13.45S171.15,211.65,171.15,211.65Z" style="fill:#6D97BF"></path><g style="clip-path:url(#freepik--clip-path-2--inject-70)"><path d="M208.77,225.1s.13,1.05.48,3c-3.66,2.6-10.33,4.39-17.95,5.13l.4-4.8a76.74,76.74,0,0,0,17.89-4.55C209.09,224.63,208.77,225.1,208.77,225.1Z" style="fill-opacity:0.7000000000000001;opacity:0.30000000000000004"></path><path d="M211.79,220.26a44.56,44.56,0,0,1-5.71.45s-5.81-2.11-8.53-3.2-13.36,1.32-13.36,1.32a28.15,28.15,0,0,1-4-2.37c-.66-.53-4-.19-7.24.3a48.11,48.11,0,0,1-1.78-5.11s43.42-3.43,43.95,0C215.38,213.48,213.56,217.2,211.79,220.26Z" style="fill-opacity:0.7000000000000001;opacity:0.30000000000000004"></path></g><path d="M171.15,211.65s2,7,3.73,8.28,16.89,7.7,16.89,7.7l-1.68,20c10.71,4,23.48-2.63,23.48-2.63a121.26,121.26,0,0,1-4.8-19.91s6.86-10,6.33-13.45S171.15,211.65,171.15,211.65Z" style="fill:none;stroke:#263238;stroke-linecap:round;stroke-linejoin:round"></path><path d="M299.18,173.25s5.12-12.63,18-9.21,10.11,16.11,5.19,27.57-3.79,19.64-1.72,24.13-4.29,9.75-7.83,9.23c0,0,2.62-.94,1.51-6.14S295.11,191.41,299.18,173.25Z" style="fill:#263238"></path><path d="M261.31,235s8.31-3.17,11.67-3.17,10.65,1.59,10.65,1.59,3.52-1.54,13.55-3.28,14,3.54,14,3.54,24.87,3.08,28.92,9.45-13.62,45.93-31,63.34l11.65,41.74s-38.55,18-76.82,6.26l11.9-45.3s-7.81-28.6-9.18-41.36,16.88-26.22,16.88-26.22" style="fill:#999"></path><g style="clip-path:url(#freepik--clip-path-3--inject-70)"><path d="M333.44,268.87a170.45,170.45,0,0,1-13.35,23.83c-.83-15.17,6.45-31.9,6.45-31.9Z" style="fill-opacity:0.7000000000000001;opacity:0.30000000000000004"></path></g><path d="M261.31,235s8.31-3.17,11.67-3.17,10.65,1.59,10.65,1.59,3.52-1.54,13.55-3.28,14,3.54,14,3.54,24.87,3.08,28.92,9.45-13.62,45.93-31,63.34l11.65,41.74s-38.55,18-76.82,6.26l11.9-45.3s-7.81-28.6-9.18-41.36,16.88-26.22,16.88-26.22" style="fill:none;stroke:#263238;stroke-linecap:round;stroke-linejoin:round"></path><path d="M307.2,233.14,288,247.87s-4.22-7.34-2.59-12.09a6,6,0,0,0,.31-1.64c.19-2.71-1.05-5.82-2.11-7.95a26.27,26.27,0,0,0-1.42-2.54s26.11-20.84,22.42-15.56S307.2,233.14,307.2,233.14Z" style="fill:#fff;stroke:#263238;stroke-linecap:round;stroke-linejoin:round"></path><path d="M311.15,233.67c.8,11.08-12.57,32.44-12.57,32.44s-30.28-1.1-41.69-5c0,0,9.5-17.92,26.74-27.67l-3.25-.65s-30,20.12-33.79,28.32,6.81,48.58,6.81,48.58S231,376.88,231.24,414.07c0,0,0,30.18,34.28,30.18,43.68,0,50.15-27.34,50.15-27.34s-5.31-73.79-10.05-95.15c0,0-4.11-35.87,2.3-47.47s8-31,6.45-40.16Z" style="fill:#fff"></path><g style="clip-path:url(#freepik--clip-path-4--inject-70)"><path d="M297.59,317.05s-33.72,27.82-54.23,26.55c5.17-19.35,10-33.94,10-33.94s-1.5-5.75-3.17-13.35c5.79,6.58,13.16,14.38,15.64,14.46,4.29.14,11-5.4,14.44-1.79S297.59,317.05,297.59,317.05Z" style="fill-opacity:0.7000000000000001;opacity:0.30000000000000004"></path></g><path d="M311.15,233.67c.8,11.08-12.57,32.44-12.57,32.44s-30.28-1.1-41.69-5c0,0,9.5-17.92,26.74-27.67l-3.25-.65s-30,20.12-33.79,28.32,6.81,48.58,6.81,48.58S231,376.88,231.24,414.07c0,0,0,30.18,34.28,30.18,43.68,0,50.15-27.34,50.15-27.34s-5.31-73.79-10.05-95.15c0,0-4.11-35.87,2.3-47.47s8-31,6.45-40.16Z" style="fill:none;stroke:#263238;stroke-linecap:round;stroke-linejoin:round"></path><path d="M197.55,227.55s7.21,1.11,11.22-2.45" style="fill:none;stroke:#263238;stroke-linecap:round;stroke-linejoin:round"></path><path d="M187.89,218l6.69-3s7.27,2.05,8.58,3" style="fill:none;stroke:#263238;stroke-linecap:round;stroke-linejoin:round"></path><path d="M178,218s5.39-4.44,9.92-3.65" style="fill:none;stroke:#263238;stroke-linecap:round;stroke-linejoin:round"></path><path d="M149.75,188.51s-8.63-2.88-10.7-4.32-3-4.44-4.87-3.87a2.8,2.8,0,0,0-1.13,4.72s-2,.53-.88,2.59,2.76-.43,5.57.82,9.75,5.31,9.75,5.31Z" style="fill:#bfbfbf;stroke:#263238;stroke-linecap:round;stroke-linejoin:round"></path><path d="M188.77,176.17s-8.63-2.87-10.69-4.31-3-4.44-4.88-3.87a2.81,2.81,0,0,0-1.12,4.72s-2,.53-.88,2.59,2.75-.43,5.57.82,9.75,5.31,9.75,5.31Z" style="fill:#bfbfbf;stroke:#263238;stroke-linecap:round;stroke-linejoin:round"></path><path d="M171.75,178.54s22.51-12.47,34.52-9.1,17,12,17,12a43.5,43.5,0,0,1,10,7.73c5,5.16,2.49,15.74,0,15.45l-2.5-.28H168.25s-18.33-5.72-23.17-9.11,5-11.47,4.56-10.18,8.61,2.72,11.11,0S165.25,176.26,171.75,178.54Z" style="fill:#999;stroke:#263238;stroke-linecap:round;stroke-linejoin:round"></path><path d="M171.75,178.54s9.32,1.09,13.07,6.5,3.75,12.41,1.69,13.32" style="fill:none;stroke:#263238;stroke-linecap:round;stroke-linejoin:round"></path><path d="M223.27,181.43s6.76,8.64,4.88,13.71-3,3.22-3,3.22" style="fill:none;stroke:#263238;stroke-linecap:round;stroke-linejoin:round"></path><path d="M254,202v2.78l-22.89,2.93L225.88,213s-36.37,3.56-69.76,2.12l-6.48-4.54-20.77-2.92v-3.07s41.51-5.37,76.77-5.27S254,202,254,202Z" style="fill:#bfbfbf"></path><g style="clip-path:url(#freepik--clip-path-5--inject-70)"><path d="M225.88,211.22l5.27-3.53L225.88,213s-36.37,3.56-69.76,2.12a220.36,220.36,0,0,1,37-5.51C214,208.32,225.88,211.22,225.88,211.22Z" style="fill-opacity:0.7000000000000001;opacity:0.30000000000000004"></path><path d="M254,204.76l-22.89,2.93s-41.15-5.07-81.51,2.92l-20.77-2.92S198.87,197.24,254,204.76Z" style="fill-opacity:0.7000000000000001;opacity:0.30000000000000004"></path></g><path d="M254,202v2.78l-22.89,2.93L225.88,213s-36.37,3.56-69.76,2.12l-6.48-4.54-20.77-2.92v-3.07s41.51-5.37,76.77-5.27S254,202,254,202Z" style="fill:none;stroke:#263238;stroke-linecap:round;stroke-linejoin:round"></path><path d="M374.19,303.3S353.26,329.93,334.84,350l-4.7,13.71,2.17,2.9a4.41,4.41,0,0,1,3.88,0c1.86,1.06-3.88,3.85-3.88,3.85s-9.23-3.62-10.53-6-8.84-10.31-7-13.22,12.29-8.93,12.29-8.93,10.9-14.77,13.58-21.89,11.68-25.82,11.68-25.82Z" style="fill:#fff;stroke:#263238;stroke-linecap:round;stroke-linejoin:round"></path><path d="M340.07,243.12c8.4,4.92,36,45.92,37.62,51.76s-6.83,18.26-6.83,18.26l-7.49,7.3s-18.23-12.39-19-13.45,2.46-6.33,2.46-6.33l-2.43-3.14.91-3.41-17.72-15.37s-3.27-22.41,3.64-30" style="fill:#999"></path><g style="clip-path:url(#freepik--clip-path-6--inject-70)"><path d="M352.34,294.62c-2.75,1.12-5.54,6-5.54,6l-2.43-3.14.91-3.41-17.72-15.37a86.37,86.37,0,0,1-.58-16.81,101.18,101.18,0,0,0,5.3,11.7s16.21,7.74,20.06,10.91-4.11,5-4,5.78S355.09,293.51,352.34,294.62Z" style="fill-opacity:0.7000000000000001;opacity:0.30000000000000004"></path></g><path d="M340.07,243.12c8.4,4.92,36,45.92,37.62,51.76s-6.83,18.26-6.83,18.26l-7.49,7.3s-18.23-12.39-19-13.45,2.46-6.33,2.46-6.33l-2.43-3.14.91-3.41-17.72-15.37s-3.27-22.41,3.64-30" style="fill:none;stroke:#263238;stroke-linecap:round;stroke-linejoin:round"></path><path d="M273.59,286.18l.91,6.36,1.52.12-.4,5.12,1-1.49-1.08,4.2,3.13-3.2-.15,2,3.53-2.55-.12,1.56,4.67-1.21-1.74,3.77,1.4.49-3.53,2.54,1.07,1.09L279.11,308l5.12.4-1.31.94,2.38.19-.1,1.25,2.16.17a17.13,17.13,0,0,1-12,2.09l1.79,1.3-.67,1,1.66,1.72s-.86,1.83-8-3.8c0,0-5.48,2.61-8.94,2.48l1.91-1.44-1.31-.1,3.43-2.45s-7.58-.83-10.43-4.17l1.82-.34-.29-.86,2.55-.4-.22-.3,4.8,1.11-6-4.91,1.62.13-1.89-3.35,1.31.1-.91-5.27,3.59,3.15.24-1.56,3.35,3.1.8-1.93,1.16,3.16.32-4.05.8,1.8-.08-5.16,1.67.13.54-5.34,1.43,1.64,1.12-5.16.23,4Z" style="fill:#6D97BF;stroke:#263238;stroke-linecap:round;stroke-linejoin:round"></path><path d="M270.15,313.27a24.62,24.62,0,0,1-.59,7.56" style="fill:#6D97BF;stroke:#263238;stroke-linecap:round;stroke-linejoin:round"></path><path d="M264.76,271.89s-3.38-3.26-4.56-3.09-1.41,10.82,0,13,3.9,0,3.9,0" style="fill:none;stroke:#263238;stroke-linecap:round;stroke-linejoin:round"></path><path d="M263.65,276.53s.37,7.37,1.11,8.92" style="fill:none;stroke:#263238;stroke-linecap:round;stroke-linejoin:round"></path><polyline points="261.99 276.53 265.87 276.53 265.87 278.39" style="fill:none;stroke:#263238;stroke-linecap:round;stroke-linejoin:round"></polyline><path d="M268.5,270.09a87,87,0,0,0,0,11.12" style="fill:none;stroke:#263238;stroke-linecap:round;stroke-linejoin:round"></path><path d="M272.46,271a55.23,55.23,0,0,0,2.14,11.29s3-7.23,4.85-9.51" style="fill:none;stroke:#263238;stroke-linecap:round;stroke-linejoin:round"></path><path d="M287.36,285.45l-5.93-2.17c1.38-2.47,2.66-11.17,2.66-11.17h5.35" style="fill:none;stroke:#263238;stroke-linecap:round;stroke-linejoin:round"></path><line x1="283.17" y1="277.32" x2="287.56" y2="278.24" style="fill:none;stroke:#263238;stroke-linecap:round;stroke-linejoin:round"></line><line x1="255.68" y1="321.41" x2="253.08" y2="330.11" style="fill:none;stroke:#263238;stroke-linecap:round;stroke-linejoin:round"></line><path d="M254.08,318.8a51.78,51.78,0,0,0,5.93,3.78" style="fill:none;stroke:#263238;stroke-linecap:round;stroke-linejoin:round"></path><line x1="260.33" y1="322.58" x2="258.23" y2="332.53" style="fill:none;stroke:#263238;stroke-linecap:round;stroke-linejoin:round"></line><line x1="259.28" y1="327.56" x2="262.65" y2="327.84" style="fill:none;stroke:#263238;stroke-linecap:round;stroke-linejoin:round"></line><path d="M263.76,322.58c0,.86-1.11,9.95-1.11,9.95" style="fill:none;stroke:#263238;stroke-linecap:round;stroke-linejoin:round"></path><polyline points="264.87 334.12 268.56 324.23 270.09 332.93" style="fill:none;stroke:#263238;stroke-linecap:round;stroke-linejoin:round"></polyline><line x1="267.32" y1="329.02" x2="269.22" y2="329.02" style="fill:none;stroke:#263238;stroke-linecap:round;stroke-linejoin:round"></line><polyline points="271.46 334.78 272.46 323.7 274.95 332.53 275.76 323.7" style="fill:none;stroke:#263238;stroke-linecap:round;stroke-linejoin:round"></polyline><line x1="278" y1="322.58" x2="278.45" y2="334.12" style="fill:none;stroke:#263238;stroke-linecap:round;stroke-linejoin:round"></line><polyline points="282.17 322.58 278.45 329.02 281.04 332.01" style="fill:none;stroke:#263238;stroke-linecap:round;stroke-linejoin:round"></polyline><path d="M285.91,321.41s-.84-.94-1.48-1-1.86,7.45-1.7,7.4,4.14,0,3.83,1.18-1.24,5.36-2.2,5.1-1.63-2.11-1.63-2.11" style="fill:none;stroke:#263238;stroke-linecap:round;stroke-linejoin:round"></path><path d="M289.44,249.77l5.23,10S306.85,244,308.08,238" style="fill:none;stroke:#263238;stroke-linecap:round;stroke-linejoin:round"></path><path d="M285.36,248.27s-13.18,7-12.9,6.27,1.73-10.73,6.45-15.93" style="fill:none;stroke:#263238;stroke-linecap:round;stroke-linejoin:round"></path><path d="M296.67,218.83s-3.7,13.56-11,15.31c.19-2.71-1.05-5.82-2.11-7.95Z" style="fill:#263238"></path><path d="M305.7,210.57a31.63,31.63,0,0,0,3.5-14.15c0-21.43-23-30.46-37.45-16.45-14.77,14.35.52,44.73,6.85,49.63,3.58,2.77,20.58-5.89,20.58-12.41" style="fill:#fff;stroke:#263238;stroke-linecap:round;stroke-linejoin:round"></path><path d="M265.64,199.43s2.74-1.14,4.33,0" style="fill:none;stroke:#263238;stroke-linecap:round;stroke-linejoin:round"></path><path d="M277.88,198.92s4.85-3.29,9-.92" style="fill:none;stroke:#263238;stroke-linecap:round;stroke-linejoin:round"></path><path d="M283.41,203.81c.12.88-.22,1.65-.76,1.72s-1.08-.57-1.2-1.44.22-1.65.76-1.72S283.29,202.94,283.41,203.81Z" style="fill:#263238"></path><path d="M271,204.87c.12.87-.22,1.64-.76,1.72s-1.08-.57-1.2-1.45.22-1.64.76-1.72S270.83,204,271,204.87Z" style="fill:#263238"></path><path d="M272,204c.72,2.16,1.18,5.26-1.52,7.7s1.19,4,3.36,3.62" style="fill:#fff;stroke:#263238;stroke-linecap:round;stroke-linejoin:round"></path><path d="M275,219s6.79.19,10.81-3.23c0,0-.66,4.55-4.81,5.86s-4.22-2-4.22-2" style="fill:#fff;stroke:#263238;stroke-linecap:round;stroke-linejoin:round"></path><path d="M280.38,183.56s1.65,12.33,15.1,18.3l1.59,3.69s1.84-8.18,5.27-6.12,1.21,14.9,1.21,14.9,6.44-1.67,9.87-14.9S311,174.59,296.9,170.11s-37,3.69-39.66,20.31,10.41,19.22,10.41,19.22-6.45-16.59,8.58-26.34c0,0,2.37,18.39,16.88,20.4C293.11,203.7,279.53,199.12,280.38,183.56Z" style="fill:#263238"></path><path d="M299.18,201.86s2.72-7.49,5.71-6.43,4.31,6.26,1.41,10.12-3.7,8.08-5.28,6" style="fill:#fff;stroke:#263238;stroke-linecap:round;stroke-linejoin:round"></path><g style="opacity:0.2"><path d="M281.43,174.67s4,17.73,17.75,19.56" style="fill:none;stroke:#fff;stroke-linecap:round;stroke-linejoin:round"></path><path d="M286.88,173.26s9.5,11.13,18.49,15.19,6.21,9.91,6.21,9.91" style="fill:none;stroke:#fff;stroke-linecap:round;stroke-linejoin:round"></path><path d="M276,176.66s-19.55,9.7-16.72,21.37" style="fill:none;stroke:#fff;stroke-linecap:round;stroke-linejoin:round"></path><path d="M309.2,172.33s7.08-9.44,12.2-3.44,0,17.6-3,26.44.2,19.61.2,19.61" style="fill:none;stroke:#fff;stroke-linecap:round;stroke-linejoin:round"></path><path d="M313.66,175.68s5-.17,4.77,5.75" style="fill:none;stroke:#fff;stroke-linecap:round;stroke-linejoin:round"></path><path d="M304.78,170.93s2.51-5.34,4.42-5.53" style="fill:none;stroke:#fff;stroke-linecap:round;stroke-linejoin:round"></path></g></g><g id="freepik--character-1--inject-70"><polygon points="130.32 449.46 138.24 449.46 127.44 388.16 119.52 388.16 130.32 449.46" style="fill:#bfbfbf;stroke:#263238;stroke-linecap:round;stroke-linejoin:round"></polygon><polygon points="59.94 449.46 52.02 449.46 48.16 427.56 41.22 388.16 49.14 388.16 55.39 423.63 59.94 449.46" style="fill:#bfbfbf"></polygon><g style="clip-path:url(#freepik--clip-path-7--inject-70)"><polygon points="55.39 423.63 48.16 427.56 41.22 388.16 49.14 388.16 55.39 423.63" style="fill-opacity:0.7000000000000001;opacity:0.30000000000000004"></polygon></g><polygon points="59.94 449.46 52.02 449.46 48.16 427.56 41.22 388.16 49.14 388.16 55.39 423.63 59.94 449.46" style="fill:none;stroke:#263238;stroke-linecap:round;stroke-linejoin:round"></polygon><polygon points="131.98 393.54 37.71 393.54 28.47 341.08 122.74 341.08 131.98 393.54" style="fill:#bfbfbf"></polygon><g style="clip-path:url(#freepik--clip-path-8--inject-70)"><path d="M132,393.54H52.26c-1.32-2.22-2-4.09-1.38-5,2.26-3,7.77-22.82,9.06-30.39.8-4.71,5.72-12.16,9.31-17.12h53.49Z" style="fill-opacity:0.7000000000000001;opacity:0.30000000000000004"></path></g><polygon points="131.98 393.54 37.71 393.54 28.47 341.08 122.74 341.08 131.98 393.54" style="fill:none;stroke:#263238;stroke-linecap:round;stroke-linejoin:round"></polygon><line x1="33.5" y1="344.51" x2="41.46" y2="389.72" style="fill:none;stroke:#263238;stroke-linecap:round;stroke-linejoin:round"></line><path d="M138.65,391.69c0,3.25,4.62,22.24,10.75,25.41s14-3,19.28-9.14c0,0-9.72-3.2-9.72-3.63s-5.3-18.35-5.3-18.35" style="fill:#fff;stroke:#263238;stroke-linecap:round;stroke-linejoin:round"></path><path d="M153.09,399.85c-3.11,2.78-6.59,5.13-8.55,4.33-2.84-1.17-4.24-10.93-4.84-17.06-.28-2.9-.39-5-.39-5l5.23-28.31c10.46,7.75,12.31,12.1,12.83,17.25s1.72,20.8,2.11,21.48C159.69,392.92,156.64,396.67,153.09,399.85Z" style="fill:#6D97BF"></path><g style="clip-path:url(#freepik--clip-path-9--inject-70)"><path d="M153.09,399.85c-3.11,2.78-6.59,5.13-8.55,4.33-2.84-1.17-4.24-10.93-4.84-17.06C143,381,147.8,376.93,151,381.3c0,0,1.58,7.58.66,9.48s-3.33,5.63-2.85,6.27,3.91-3.64,4.89-2.56C154,394.89,153.93,397.23,153.09,399.85Z" style="fill-opacity:0.7000000000000001;opacity:0.30000000000000004"></path></g><path d="M153.09,399.85c-3.11,2.78-6.59,5.13-8.55,4.33-2.84-1.17-4.24-10.93-4.84-17.06-.28-2.9-.39-5-.39-5l5.23-28.31c10.46,7.75,12.31,12.1,12.83,17.25s1.72,20.8,2.11,21.48C159.69,392.92,156.64,396.67,153.09,399.85Z" style="fill:none;stroke:#263238;stroke-linecap:round;stroke-linejoin:round"></path><path d="M160.27,415.5a48.33,48.33,0,0,0,13.64-14.63L168.71,386s-4.61,8.24-8,9-12.53,5.62-11.87,12.37" style="fill:#fff;stroke:#263238;stroke-linecap:round;stroke-linejoin:round"></path><path d="M148.57,385.07c-.63,2.76-1.29,5.95-1.95,9.42-3.57,18.66-7.31,45.28-7.31,55H69.91s-.5-23.77,0-47.85c.37-17.14,1.25-34.43,3.2-43.41,0,0,15.36-18.82,44.93-15.31,14.78,1.76,23.52,7.6,28.57,13" style="fill:#6D97BF"></path><g style="clip-path:url(#freepik--clip-path-10--inject-70)"><path d="M146.62,394.49c-3.57,18.66-7.31,45.28-7.31,55H69.91s-.5-23.77,0-47.85c6.2.2,13.16-5.17,17.92-6.7,21.27-6.86,13.39,1.15,15.5,2.14s25.71-9.37,28.13-6.27c2.15,2.76-2.13,7.23.49,8.25S146.62,394.49,146.62,394.49Z" style="fill-opacity:0.7000000000000001;opacity:0.30000000000000004"></path></g><path d="M148.57,385.07c-.63,2.76-1.29,5.95-1.95,9.42-3.57,18.66-7.31,45.28-7.31,55H69.91s-.5-23.77,0-47.85c.37-17.14,1.25-34.43,3.2-43.41,0,0,15.36-18.82,44.93-15.31,14.78,1.76,23.52,7.6,28.57,13" style="fill:none;stroke:#263238;stroke-linecap:round;stroke-linejoin:round"></path><path d="M86.56,361.45a33.62,33.62,0,0,1,.45,5.86A32.22,32.22,0,0,1,82,384.4c-1.47,4.36-4.09,12-9.51,18.76-.12.17-.26.33-.39.49-5.67,6.86-5.81-5.73-12.27-9.26s-6.05-6.17-6.05-6.17c5.4-7.9,5.22-11.72,8.3-16.62,7.53-11.94,6.33-15.42,25.48-23.94" style="fill:#6D97BF"></path><g style="clip-path:url(#freepik--clip-path-11--inject-70)"><path d="M87,367.31A32.22,32.22,0,0,1,82,384.4c-1.47,4.36-4.09,12-9.51,18.76a6.92,6.92,0,0,1-2.74-3c-3.33-7.1,4.51-11.09,5.3-13.07s-.13-15,1.68-15.43,4.65,8.44,5.44,7.38S84.36,365.64,87,367.31Z" style="fill-opacity:0.7000000000000001;opacity:0.30000000000000004"></path></g><path d="M86.56,361.45a33.62,33.62,0,0,1,.45,5.86A32.22,32.22,0,0,1,82,384.4c-1.47,4.36-4.09,12-9.51,18.76-.12.17-.26.33-.39.49-5.67,6.86-5.81-5.73-12.27-9.26s-6.05-6.17-6.05-6.17c5.4-7.9,5.22-11.72,8.3-16.62,7.53-11.94,6.33-15.42,25.48-23.94" style="fill:none;stroke:#263238;stroke-linecap:round;stroke-linejoin:round"></path><path d="M132.23,337.75c-1,.6-1.91,2.39-2.61,4.26a42.93,42.93,0,0,0-1.61,5.36l3,2.62s-2.65,8.21-13.94,8.21-13.73-11.07-13.73-11.07c5.29-3.37,5.78-12.53,5.53-15.88,0,0,13.24-12.27,16.36-12.08,2.45.14,6.82,10.57,7.44,15.78C132.87,336.39,132.75,337.44,132.23,337.75Z" style="fill:#fff;stroke:#263238;stroke-linecap:round;stroke-linejoin:round"></path><path d="M88.72,379.65s.45-3.94.53-14.37-2.18-14.68-2.18-14.68l-2.64,22.78h0l-2.93,25.3,3.06.35,2.17-18.74Z" style="fill:#263238"></path><path d="M175.13,366.72h0c-.28-1.38-.61-2.76-1-4.13s-.77-2.73-1.27-4.08a40.66,40.66,0,0,0,.07,4.28c.08,1.41.2,2.82.37,4.22v-.08a1.38,1.38,0,0,1-.6,1.08,1.19,1.19,0,0,1-.58.2H172l-1.54-9.54-.32,9.66H170a1.24,1.24,0,0,1-.6-.12,1.34,1.34,0,0,1-.73-1v.09c0-1.41-.07-2.82-.17-4.24s-.23-2.83-.46-4.25a41.3,41.3,0,0,0-.75,4.21c-.19,1.41-.35,2.81-.45,4.22h0v.08a3,3,0,0,0,2.83,3l1.53,24.08,3.08-.2-1.53-24.07a3.2,3.2,0,0,0,1.15-.5,3.09,3.09,0,0,0,1.28-2.82Z" style="fill:#263238"></path><path d="M168.33,382.14s8.42-2.18,10.24-1.77a3.72,3.72,0,0,1,2.64,3.94c-.27,1.36-1,2.44,0,3.39s-.09,2.71,0,3.66a16.81,16.81,0,0,0,.45,2.85c.33,1.35-.89,1.46-1,2.9s.81,1.36.14,2.52c-1.31,2.23-10.6,2.52-12.48,1.43-4.09-2.35-2.31-8.5-2.31-8.5s-3.17,1.38-3.43-2.53-2.39-5.86-.36-8S168.33,382.14,168.33,382.14Z" style="fill:#fff;stroke:#263238;stroke-linecap:round;stroke-linejoin:round"></path><path d="M168.33,382.14s-2.2.81-1.85,2.79a7.41,7.41,0,0,0,.91,2.75s-.6.81-.25,2.94,0,3.11.25,3.87.06,2.64.26,3.76,2.67,4,6.26,3.53" style="fill:none;stroke:#263238;stroke-linecap:round;stroke-linejoin:round"></path><path d="M167.39,387.68s5,1.22,8.55,0" style="fill:none;stroke:#263238;stroke-linecap:round;stroke-linejoin:round"></path><path d="M167.75,392.86a31,31,0,0,0,8.54,0" style="fill:none;stroke:#263238;stroke-linecap:round;stroke-linejoin:round"></path><path d="M167.75,396.88a21.1,21.1,0,0,0,8.19.86" style="fill:none;stroke:#263238;stroke-linecap:round;stroke-linejoin:round"></path><path d="M166,392.56a5.34,5.34,0,0,0,1-3.56" style="fill:#fff;stroke:#263238;stroke-linecap:round;stroke-linejoin:round"></path><path d="M69.91,394.39A26.82,26.82,0,0,0,56,389.91s-9.35,15.58-2.7,21.65S69.91,394.39,69.91,394.39Z" style="fill:#fff;stroke:#263238;stroke-linecap:round;stroke-linejoin:round"></path><path d="M51.75,407.08C52.14,418,69.24,417,81,402.69L78.6,386c0,4.79-17.23,8.41-17.23,8.41-5,1.61-8,3.89-7.5,6.72" style="fill:#fff;stroke:#263238;stroke-linecap:round;stroke-linejoin:round"></path><path d="M86.56,383.05s-8.41-2.18-10.24-1.77a3.73,3.73,0,0,0-2.64,3.94c.28,1.36,1,2.44,0,3.39s.1,2.71,0,3.66a15.7,15.7,0,0,1-.44,2.85c-.33,1.35.89,1.46,1,2.9s-.82,1.37-.14,2.52c1.31,2.23,10.59,2.52,12.47,1.43,4.09-2.35,2.31-8.5,2.31-8.5s3.18,1.38,3.44-2.53,2.39-5.86.35-8S86.56,383.05,86.56,383.05Z" style="fill:#fff;stroke:#263238;stroke-linecap:round;stroke-linejoin:round"></path><path d="M86.56,383.05s2.21.81,1.86,2.79a7.41,7.41,0,0,1-.91,2.75s.6.81.25,3,0,3.1-.25,3.86-.06,2.64-.26,3.76-2.67,4-6.26,3.53" style="fill:none;stroke:#263238;stroke-linecap:round;stroke-linejoin:round"></path><path d="M87.51,388.59s-5,1.22-8.55,0" style="fill:none;stroke:#263238;stroke-linecap:round;stroke-linejoin:round"></path><path d="M87.15,393.77a31,31,0,0,1-8.55,0" style="fill:none;stroke:#263238;stroke-linecap:round;stroke-linejoin:round"></path><path d="M87.15,397.79a20.89,20.89,0,0,1-8.19.86" style="fill:none;stroke:#263238;stroke-linecap:round;stroke-linejoin:round"></path><path d="M88.87,393.47a5.29,5.29,0,0,1-1-3.56" style="fill:#fff;stroke:#263238;stroke-linecap:round;stroke-linejoin:round"></path><path d="M132.23,337.75c-1,.6-1.91,2.39-2.61,4.26-3.78-3.84-4.25-9.48-4.25-9.48l7.32,2.42C132.87,336.39,132.75,337.44,132.23,337.75Z" style="fill:#263238"></path><path d="M124.4,335.2c6.09,7.47,17.73,6.15,19.1,4.43,1.2-1.51.9-5.2.9-5.2,2.43-.69,1.19-2.32,1.19-2.32-9.14.73-8.64-7.92-8.64-7.92,8.31.69,9.74-2,9.74-2l-1.11-4.29s3.68-3.15,2.38-4.57c-.75-.82-3.84-2.21-4.73-2.87-4.8-3.56-1.25-10.84-7.76-16.1-6.13-5-19.4-8.83-27.69-1.7-7.67,6.6-10.07,27.77-4.42,34s8.66,5.89,8.66,5.89" style="fill:#fff;stroke:#263238;stroke-linecap:round;stroke-linejoin:round"></path><path d="M137.8,308.7c.25,1.17,0,2.23-.63,2.36s-1.29-.72-1.53-1.9,0-2.22.63-2.35S137.55,307.53,137.8,308.7Z" style="fill:#263238"></path><path d="M137.87,301.23a5.38,5.38,0,0,0-4.61,3.23" style="fill:none;stroke:#263238;stroke-linecap:round;stroke-linejoin:round"></path><path d="M128,281.47c-18.82-1.11-28.26,11.63-28.26,11.63l.55-3.36c-11.63,7.71-5,18.31-5,18.31-7.76,4.69-3.6,13.85-3.6,13.85l2.77-2.21c4.15,16.61,15.14,15,15.14,15l8.44-8.33c-2.77-.28-9.74-2.2-7.8-11,1.47-6.63,5.89-2.55,8.06-.5l1.87-.68c-2.59-8.67,5.86-14.42,5.86-14.42l-1.66,3.09L137.87,297l-1.15,2.5C147.1,296.15,146.83,282.58,128,281.47Z" style="fill:#263238"></path><path d="M119.36,316.33s-4.09-6.61-7.22-5.41-2.89,10.71-1.68,12.51,5.71,2.53,7.61,4.33,3.46.12,3.09-1.08" style="fill:#fff;stroke:#263238;stroke-linecap:round;stroke-linejoin:round"></path><path d="M129.07,283.91s12.57,1.16,10.24,10.65" style="fill:none;stroke:#fff;stroke-linecap:round;stroke-linejoin:round;opacity:0.2"></path><path d="M126,283.35S136.39,289,128.41,298" style="fill:none;stroke:#fff;stroke-linecap:round;stroke-linejoin:round;opacity:0.2"></path><path d="M122.34,283.35S129.87,296,111,303.53" style="fill:none;stroke:#fff;stroke-linecap:round;stroke-linejoin:round;opacity:0.2"></path><path d="M136.72,385.46s-17.06,22-46.11,30" style="fill:none;stroke:#263238;stroke-linecap:round;stroke-linejoin:round"></path><path d="M101.64,351.61s6.21,9.65,16.42,9.65,13.92-6,13.92-6" style="fill:none;stroke:#263238;stroke-linecap:round;stroke-linejoin:round"></path><path d="M153.66,362.06s.2,9.77-2.7,13.46" style="fill:none;stroke:#263238;stroke-linecap:round;stroke-linejoin:round"></path><path d="M73.14,355.73s6.77,6.41,7.09,11.39" style="fill:none;stroke:#263238;stroke-linecap:round;stroke-linejoin:round"></path></g><g id="freepik--Table--inject-70"><path d="M248.48,370.44s3.17-9.18-10-17.5C238.52,352.94,235.62,370.57,248.48,370.44Z" style="fill:#6D97BF;stroke:#263238;stroke-linecap:round;stroke-linejoin:round"></path><path d="M282.51,385.46c.39-1.3,12.45-16.33,14.31-13.59s-5.16,6.2-3.63,6.63,9.54-3.24,10.31-.86-10.5,4.5-10.5,4.5,7.11-.35,5.92,2.42S282.51,385.46,282.51,385.46Z" style="fill:#263238"></path><path d="M232.87,387.68s-6.12-11.18,0-17.24S246,369.6,246,369.6s12.93-6.67,17.38-2.09,6.67,24.42-7.4,27.86S232.88,397.32,232.87,387.68Z" style="fill:#999;stroke:#263238;stroke-linecap:round;stroke-linejoin:round"></path><path d="M221.58,380.91c0-1.69-3.76-16.13-6.13-18.11s-1,6.53-1.19,5.74-7.51-10.09-9.49-8.9,2,8.1,2,8.1-6.93-4.53-7.32-1.87,5.14,6,5.14,6-9.58-1.16-8.15,2.4,7,3.76,7,3.76-6.23,1.3-5.59,4.11S216.44,389,216.44,389Z" style="fill:#6D97BF;stroke:#263238;stroke-linecap:round;stroke-linejoin:round"></path><path d="M199.23,394.39c-3.16-4.49-.59-7,2.77-6.71a6.85,6.85,0,0,1,6-7.37c6.62-1.09,6.62,1.83,6.62,1.83s3.86-9.1,9.55-8.58,7.46,3.48,5.68,7.74c0,0,7.09-1.09,7.7,2.07a10,10,0,0,1,0,4.85s3.22-3.05,4.49,2.78-4.49,6.38-4.49,6.38Z" style="fill:#263238"></path><path d="M251.65,394.39c.79-.48,17.14-10.6,23.71-14.07s14.46,5.8,11.5,10.46S251.65,394.39,251.65,394.39Z" style="fill:#bfbfbf;stroke:#263238;stroke-linecap:round;stroke-linejoin:round"></path><polygon points="189.21 393.91 305.02 393.91 305.02 397.37 290.45 399.38 287.73 402.1 208.04 402.1 204.13 398.88 189.21 397.37 189.21 393.91" style="fill:#bfbfbf;stroke:#263238;stroke-linecap:round;stroke-linejoin:round"></polygon><path d="M459.27,451.46V411.6a9.49,9.49,0,0,0-9.49-9.49H38a9.49,9.49,0,0,0-9.49,9.49v39.86" style="fill:#fff;stroke:#263238;stroke-linecap:round;stroke-linejoin:round"></path></g><g id="freepik--character-3--inject-70"><path d="M321.44,290.32s.58,14.26,2.06,15.43,6,18.06,6,18.06l-12.3,3.83L311,310.76Z" style="fill:#fff;stroke:#263238;stroke-linecap:round;stroke-linejoin:round"></path><path d="M285.09,327.24s9.18-13.49,8.39-15.85-1.22-18.88-1.22-18.88,4.83-10.15,6.32-9.73c0,0,4.46-4.51,6.51-5.17s8.57,0,8.57,0-4.57,5.59-4.46,7.3,2.22,13.61,2.22,13.61a34.42,34.42,0,0,0,1.14,10c1.37,4.22-17,33.45-17,33.45Z" style="fill:#fff;stroke:#263238;stroke-linecap:round;stroke-linejoin:round"></path><path d="M307,281.63s5-5.93,7.69-5.41,3,3.7,3.52,4.09,2.58,1.77,3.27,5.83.16,5.64.82,7.49-.27,5-.66,5.67-11.49,4.59-12.28,2.87a9.09,9.09,0,0,1-.29-4.45s-5.23-1.45-1-6.6c0,0-2.76-2.24-.26-5.67C307.82,285.45,306.63,284.27,307,281.63Z" style="fill:#fff;stroke:#263238;stroke-linecap:round;stroke-linejoin:round"></path><path d="M309.1,297.72s8.35-4.62,11.25-4" style="fill:none;stroke:#263238;stroke-linecap:round;stroke-linejoin:round"></path><path d="M308.08,291.12s7.65-3.56,9.1-3.82" style="fill:none;stroke:#263238;stroke-linecap:round;stroke-linejoin:round"></path><path d="M307.82,285.45c.79-.66,6.23-4.61,7.52-4.22" style="fill:none;stroke:#263238;stroke-linecap:round;stroke-linejoin:round"></path><path d="M310.36,303.9s3.75-2.64,5-4.48,2.14-10.92,4.52-12.12,2.81-.48,3.43,0-.25,5.76-.75,8.41,1.64,5.42-2.19,10.7S307,317.56,307,317.56" style="fill:#fff;stroke:#263238;stroke-linecap:round;stroke-linejoin:round"></path><path d="M337.17,249.39c-.21,2.91-2.05,5.14-4.12,5s-3.57-2.62-3.36-5.53,2-5.14,4.11-5S337.37,246.48,337.17,249.39Z" style="fill:#fff;stroke:#263238;stroke-linecap:round;stroke-linejoin:round"></path><path d="M334.41,231.62c1-2.11,7-4.57,8.38-6.22,12-14.86,37.27-11.74,42.9,6,6.25,19.77-18.59,51.91-24.34,53.61-8.08,2.38-28.57,3.84-28.78-5.1-.34-14.73-2.85-20.79.78-27.4C336.46,246.91,330.9,239.33,334.41,231.62Z" style="fill:#fff;stroke:#263238;stroke-linecap:round;stroke-linejoin:round"></path><path d="M341.91,282.24c1.7,1.46,6.25,15.72,3.32,26.7l34.63,2.45s-6.89-27.8-5.17-31.33-14.53-9.58-19.32-4.43" style="fill:#fff;stroke:#263238;stroke-linecap:round;stroke-linejoin:round"></path><path d="M376.5,212.88a38.89,38.89,0,0,0-31.11-5.08s5.29-.05,7.09,1.35c0,0-8.81-.84-16.74,9.79s-4,23.16-4,23.16l1.13-3.93s2,10.4,8.52,13.76,5,19.5,6.52,24.26S368.13,284,374.42,282c5-1.61,16.29-13.42,18.9-26.39l.71,4.84s5.3-21.16-1.27-29.65l4.18,2.83s-4.33-9.76-10.28-12.11c0,0-.37-6.77-15.94-13.49A16.84,16.84,0,0,1,376.5,212.88Z" style="fill:#263238"></path><path d="M343.83,273.36s.68,3.5-7.27,8.5" style="fill:none;stroke:#263238;stroke-linecap:round;stroke-linejoin:round"></path><line x1="329.69" y1="248.86" x2="342.46" y2="249.77" style="fill:none;stroke:#263238;stroke-linecap:round;stroke-linejoin:round"></line><path d="M341.31,253.55s2.17-9.78,4.26-9.42c1.16.2,1.83,2.4,2.05,5.4A8.61,8.61,0,0,1,349,256c-1,6.48-2.57,7.41-2.57,7.41-.8,3.55-1.84,5.94-2.95,5.29-1.65-1-2.15-2.9-.89-5.76" style="fill:#fff;stroke:#263238;stroke-linecap:round;stroke-linejoin:round"></path><path d="M344.32,248.27c.41.13.81,9.45-.34,13.81" style="fill:none;stroke:#263238;stroke-linecap:round;stroke-linejoin:round"></path><path d="M347.62,249.53s-.05,5.31-.44,6.23" style="fill:none;stroke:#263238;stroke-linecap:round;stroke-linejoin:round"></path><path d="M418.1,450.46s-2.41-68.61,1.51-92.75a64.83,64.83,0,0,0-10.46-47.15c-3.92-5.62-25.71-11.15-25.71-11.15s-3.49-4.6-17-4.2-31.84,8.41-31.84,8.41c-7.4,1.81-12.9,4.52-17,7.77-5.27,1.07-11.56,6.38-18,13.55-2.94-3-8.76-6.1-10.81-6-1.52.1-3.09,2.55-4.09,4.45-7.52-2-7.06,6-7.06,6S240.64,385,265.77,400.31l0,.25,1,.36c4.32,2.29,8.06,2.31,11.31.74,10.23-2.45,19.1-13.72,34.1-29.79,1.33,17.05,2.5,78.59,2.5,78.59" style="fill:#6D97BF"></path><g style="clip-path:url(#freepik--clip-path-12--inject-70)"><path d="M419.61,357.71c-3.92,24.14-1.51,92.75-1.51,92.75H330c.51-8.15,1.5-16.34,3.44-19.29,4.31-6.61-1.95-12,0-20.47s11.5-23.17,8.48-25.24-2.51-45.41,8.74-53.45c8.33-5.95,46.09-8.26,65.13-9.06A64.75,64.75,0,0,1,419.61,357.71Z" style="fill-opacity:0.7000000000000001;opacity:0.30000000000000004"></path><path d="M312.47,375.53c-.09-1.37-.17-2.6-.25-3.66-15,16.07-23.87,27.34-34.1,29.79a10.58,10.58,0,0,1-4.95,1.08c11.38-2.95,20.58-16.78,22.64-20.51,2.7-4.9,10.49-24.37,13.29-25.16s1.94,10.28,4.56,4.62,5.09-20.44,6.69-8.75C321.45,361,316.19,370.06,312.47,375.53Z" style="fill-opacity:0.7000000000000001;opacity:0.30000000000000004"></path><path d="M297.61,327.29a33.27,33.27,0,0,0-8.17-2c-5.23-.69,2,4.54,1.64,5.88s-7.08.75-6,2.92-3.94,17-9.33,22.75-8.52,8.2-8.74,10.33c0,0,5.14-1.9,6.44-3.31s8.85-8.54,12-16.48S297.61,327.29,297.61,327.29Z" style="fill-opacity:0.7000000000000001;opacity:0.30000000000000004"></path></g><path d="M418.1,450.46s-2.41-68.61,1.51-92.75a64.83,64.83,0,0,0-10.46-47.15c-3.92-5.62-25.71-11.15-25.71-11.15s-3.49-4.6-17-4.2-31.84,8.41-31.84,8.41c-7.4,1.81-12.9,4.52-17,7.77-5.27,1.07-11.56,6.38-18,13.55-2.94-3-8.76-6.1-10.81-6-1.52.1-3.09,2.55-4.09,4.45-7.52-2-7.06,6-7.06,6S240.64,385,265.77,400.31l0,.25,1,.36c4.32,2.29,8.06,2.31,11.31.74,10.23-2.45,19.1-13.72,34.1-29.79,1.33,17.05,2.5,78.59,2.5,78.59" style="fill:none;stroke:#263238;stroke-linecap:round;stroke-linejoin:round"></path><path d="M315.34,322.58c9.19,23-3.12,49.29-3.12,49.29,2.1-.32,8.59-4.39,11.28-11.72" style="fill:none;stroke:#263238;stroke-linecap:round;stroke-linejoin:round"></path><path d="M356.28,298.52s18.21-3.46,27.16.89" style="fill:none;stroke:#263238;stroke-linecap:round;stroke-linejoin:round"></path><path d="M407.15,361.26s-44.52,17-59.53,39.3" style="fill:none;stroke:#263238;stroke-linecap:round;stroke-linejoin:round"></path><path d="M271.7,365.87s-5,.47-8.23,3.73" style="fill:none;stroke:#263238;stroke-linecap:round;stroke-linejoin:round"></path><path d="M277.71,329.42s5.22-1.65,8.65,1.78" style="fill:none;stroke:#263238;stroke-linecap:round;stroke-linejoin:round"></path><path d="M299.67,324.94c-10.12,14.44-18.23,30.43-23.77,36.32s-9.21,9.85-8.85,15.19" style="fill:none;stroke:#263238;stroke-linecap:round;stroke-linejoin:round"></path><g style="opacity:0.2"><path d="M377.89,221.92s12.93,13.73,7.59,30.72" style="fill:none;stroke:#fff;stroke-linecap:round;stroke-linejoin:round"></path><path d="M374.22,223.15c.79,7-3.77,14.82-9.7,20" style="fill:none;stroke:#fff;stroke-linecap:round;stroke-linejoin:round"></path><path d="M374.19,220c.61-.4-7.27-12.33-21.85-7.91" style="fill:none;stroke:#fff;stroke-linecap:round;stroke-linejoin:round"></path><path d="M371.44,220s-12.47-9.5-24-2.57-9.78,16.35-9.78,16.35" style="fill:none;stroke:#fff;stroke-linecap:round;stroke-linejoin:round"></path><path d="M370.25,221.92s-21.79,1.63-21.18,14.49" style="fill:none;stroke:#fff;stroke-linecap:round;stroke-linejoin:round"></path><path d="M377.89,218.83s3.8-.46.67-4.5" style="fill:none;stroke:#fff;stroke-linecap:round;stroke-linejoin:round"></path><path d="M380.93,221.92s6.73,1,8.91,9.15" style="fill:none;stroke:#fff;stroke-linecap:round;stroke-linejoin:round"></path></g><path d="M284.77,323.43c.72.21,6.56,2,10.42,5.81" style="fill:none;stroke:#263238;stroke-linecap:round;stroke-linejoin:round"></path><polyline points="336.56 450.46 350.1 373.56 360.03 373.56 346.49 450.46" style="fill:#bfbfbf"></polyline><g style="clip-path:url(#freepik--clip-path-13--inject-70)"><path d="M353.27,373.56H360l-13.54,76.9h-6.2C344.11,428.28,350.78,388.44,353.27,373.56Z" style="fill-opacity:0.7000000000000001;opacity:0.30000000000000004"></path></g><polyline points="336.56 450.46 350.1 373.56 360.03 373.56 346.49 450.46" style="fill:none;stroke:#263238;stroke-linecap:round;stroke-linejoin:round"></polyline><polyline points="434.78 450.46 447.85 376.22 448.32 373.56 458.26 373.56 457.64 377.11 444.72 450.46" style="fill:#bfbfbf"></polyline><g style="clip-path:url(#freepik--clip-path-14--inject-70)"><polygon points="457.64 377.11 444.72 450.46 434.78 450.46 447.85 376.22 457.64 377.11" style="fill-opacity:0.7000000000000001;opacity:0.30000000000000004"></polygon></g><polyline points="434.78 450.46 447.85 376.22 448.32 373.56 458.26 373.56 457.64 377.11 444.72 450.46" style="fill:none;stroke:#263238;stroke-linecap:round;stroke-linejoin:round"></polyline><polygon points="474.26 314.5 473.17 320.69 462.67 380.31 344.4 380.31 355.99 314.5 474.26 314.5" style="fill:#bfbfbf"></polygon><g style="clip-path:url(#freepik--clip-path-15--inject-70)"><polygon points="473.17 320.69 462.67 380.31 352.72 380.31 364.52 320.69 473.17 320.69" style="fill-opacity:0.7000000000000001;opacity:0.30000000000000004"></polygon></g><polygon points="474.26 314.5 473.17 320.69 462.67 380.31 344.4 380.31 355.99 314.5 474.26 314.5" style="fill:none;stroke:#263238;stroke-linecap:round;stroke-linejoin:round"></polygon><line x1="362.86" y1="318.8" x2="352.87" y2="375.52" style="fill:#bfbfbf;stroke:#263238;stroke-linecap:round;stroke-linejoin:round"></line></g></svg>